# xmcd
#
# Track frame offsets:
#	150
#	8043
#	29161
#	51690
#	72988
#	84798
#	104445
#	122206
#	145538
#	159835
#	173261
#	188357
#	203512
#	224802
#	246063
#
# Disc length: 4067 seconds
#
# Revision: 0
# Processed by: cddbd v1.5.1PL0 Copyright (c) Steve Scherf et al.
# Submitted via: dBpowerAMP V4.0
#
DISCID=c60fe10f
DTITLE=Dbt - Delta Blues
DYEAR=2000
DGENRE=Blues
TTITLE0=La coupe Santo
TTITLE1=Rave Partie
TTITLE2=Mercedes Rose
TTITLE3=Le Blues du Cuisinier
TTITLE4=Le chant des Sirenes
TTITLE5=Parfum de Guano
TTITLE6=le Pitalugue
TTITLE7=Le blues d'un soir
TTITLE8=Jeux de Mains
TTITLE9=Agence tout Risque
TTITLE10=Un tour de Con
TTITLE11=Rock Star
TTITLE12=La Boogie de la Vie
TTITLE13=Style Blues
TTITLE14=Chante en Francais
EXTD=
EXTT0=
EXTT1=
EXTT2=
EXTT3=
EXTT4=
EXTT5=
EXTT6=
EXTT7=
EXTT8=
EXTT9=
EXTT10=
EXTT11=
EXTT12=
EXTT13=
EXTT14=
PLAYORDER=
